<svg width="40" height="43" viewBox="0 0 40 43" fill="none" xmlns="http://www.w3.org/2000/svg">
<path d="M28.7798 0.0170746L26.7874 18.9611L23.3905 2.98933L12.6773 5.24302L16.0415 21.2148L0.625 24.481L3.36862 37.2193L30.5109 43.0005L36.7167 29.1191L39.6563 1.16025L28.7798 0.0170746ZM20.1896 27.5186C19.6344 28.0412 18.9158 27.9759 18.0993 27.7146C17.3154 27.4533 16.9887 26.5388 17.25 25.3629C17.4787 24.5137 18.4912 24.3831 19.0465 24.3831C19.2424 24.3831 19.4384 24.4157 19.6344 24.5137C19.9937 24.677 20.6142 25.0363 20.7449 25.5589C20.9409 26.3428 20.7449 26.996 20.1896 27.5186ZM28.0612 28.3678C27.6366 29.0864 26.5914 29.1844 25.5136 28.6618C24.795 28.3025 24.795 27.4533 24.893 26.898C24.9256 26.6041 25.0563 26.3101 25.2523 26.0815C25.5136 25.7549 25.9382 25.3303 26.3954 25.3303C27.212 25.2976 27.8652 25.6569 28.2572 26.3101C28.6491 26.9634 28.4532 27.6819 28.0612 28.3678Z" fill="#E3004F"/>
</svg>
